{
  "accessors": [
    {
      "bufferView": 2,
      "componentType": 5126,
      "count": 34385,
      "max": [
        0.743575930595398,
        0.12083229422569275,
        0.10019420087337494
      ],
      "min": [
        -0.7500791549682617,
        -0.11666979640722275,
        -0.49069422483444214
      ],
      "type": "VEC3"
    },
    {
      "bufferView": 2,
      "byteOffset": 412620,
      "componentType": 5126,
      "count": 34385,
      "max": [
        1.0,
        1.0,
        1.0
      ],
      "min": [
        -1.0,
        -1.0,
        -1.0
      ],
      "type": "VEC3"
    },
    {
      "bufferView": 3,
      "componentType": 5126,
      "count": 34385,
      "max": [
        1.0,
        1.0,
        1.0,
        1.0
      ],
      "min": [
        -1.0,
        -1.0,
        -1.0,
        -1.0
      ],
      "type": "VEC4"
    },
    {
      "bufferView": 1,
      "componentType": 5126,
      "count": 34385,
      "max": [
        0.997805118560791,
        0.9988680481910706
      ],
      "min": [
        0.0009765625,
        0.0009765970753505826
      ],
      "type": "VEC2"
    },
    {
      "bufferView": 1,
      "byteOffset": 275080,
      "componentType": 5126,
      "count": 34385,
      "max": [
        0.997805118560791,
        0.9988680481910706
      ],
      "min": [
        0.0009765625,
        0.0009765970753505826
      ],
      "type": "VEC2"
    },
    {
      "bufferView": 1,
      "byteOffset": 550160,
      "componentType": 5126,
      "count": 34385,
      "max": [
        0.997805118560791,
        0.9988680481910706
      ],
      "min": [
        0.0009765625,
        0.0009765970753505826
      ],
      "type": "VEC2"
    },
    {
      "bufferView": 0,
      "componentType": 5125,
      "count": 134517,
      "type": "SCALAR"
    }
  ],
  "asset": {
    "extras": {
      "author": "Ria_Xana (https://sketchfab.com/Ria_Xana)",
      "license": "CC-BY-4.0 (http://creativecommons.org/licenses/by/4.0/)",
      "source": "https://sketchfab.com/3d-models/plas-1-scorcher-helldivers-2-ae6ba586eb364ab293f6d1e0a04c4026",
      "title": "Plas-1 Scorcher Helldivers 2"
    },
    "generator": "Sketchfab-16.29.0",
    "version": "2.0"
  },
  "bufferViews": [
    {
      "buffer": 0,
      "byteLength": 538068,
      "name": "floatBufferViews",
      "target": 34963
    },
    {
      "buffer": 0,
      "byteLength": 825240,
      "byteOffset": 538068,
      "byteStride": 8,
      "name": "floatBufferViews",
      "target": 34962
    },
    {
      "buffer": 0,
      "byteLength": 825240,
      "byteOffset": 1363308,
      "byteStride": 12,
      "name": "floatBufferViews",
      "target": 34962
    },
    {
      "buffer": 0,
      "byteLength": 550160,
      "byteOffset": 2188548,
      "byteStride": 16,
      "name": "floatBufferViews",
      "target": 34962
    }
  ],
  "buffers": [
    {
      "byteLength": 2738708,
      "uri": "scene.bin"
    }
  ],
  "images": [
    {
      "uri": "textures/Plas-1_baseColor.png"
    },
    {
      "uri": "textures/Plas-1_metallicRoughness.png"
    },
    {
      "uri": "textures/Plas-1_emissive.png"
    },
    {
      "uri": "textures/Plas-1_normal.png"
    }
  ],
  "materials": [
    {
      "doubleSided": true,
      "emissiveFactor": [
        1.0,
        1.0,
        1.0
      ],
      "emissiveTexture": {
        "index": 2
      },
      "name": "Plas-1",
      "normalTexture": {
        "index": 3
      },
      "occlusionTexture": {
        "index": 1
      },
      "pbrMetallicRoughness": {
        "baseColorTexture": {
          "index": 0
        },
        "metallicRoughnessTexture": {
          "index": 1
        }
      }
    }
  ],
  "meshes": [
    {
      "name": "Cube.017_Plas-1_0",
      "primitives": [
        {
          "attributes": {
            "NORMAL": 1,
            "POSITION": 0,
            "TANGENT": 2,
            "TEXCOORD_0": 3,
            "TEXCOORD_1": 4,
            "TEXCOORD_2": 5
          },
          "indices": 6,
          "material": 0,
          "mode": 4
        }
      ]
    }
  ],
  "nodes": [
    {
      "children": [
        1
      ],
      "matrix": [
        1.0,
        0.0,
        0.0,
        0.0,
        0.0,
        2.220446049250313e-16,
        -1.0,
        0.0,
        0.0,
        1.0,
        2.220446049250313e-16,
        0.0,
        0.0,
        0.0,
        0.0,
        1.0
      ],
      "name": "Sketchfab_model"
    },
    {
      "children": [
        2
      ],
      "matrix": [
        0.009999999776482582,
        0.0,
        0.0,
        0.0,
        0.0,
        0.0,
        0.009999999776482582,
        0.0,
        0.0,
        -0.009999999776482582,
        0.0,
        0.0,
        0.0,
        0.0,
        0.0,
        1.0
      ],
      "name": "5c4137f3ceea4f61b9c1acb9f15f278d.fbx"
    },
    {
      "children": [
        3
      ],
      "name": "RootNode"
    },
    {
      "children": [
        4
      ],
      "matrix": [
        100.0,
        0.0,
        0.0,
        0.0,
        0.0,
        -1.629206793918314e-05,
        -99.99999999999868,
        0.0,
        0.0,
        99.99999999999868,
        -1.629206793918314e-05,
        0.0,
        0.0,
        0.0,
        0.0,
        1.0
      ],
      "name": "Cube.017"
    },
    {
      "mesh": 0,
      "name": "Cube.017_Plas-1_0"
    }
  ],
  "samplers": [
    {
      "magFilter": 9729,
      "minFilter": 9987,
      "wrapS": 10497,
      "wrapT": 10497
    }
  ],
  "scene": 0,
  "scenes": [
    {
      "name": "Sketchfab_Scene",
      "nodes": [
        0
      ]
    }
  ],
  "textures": [
    {
      "sampler": 0,
      "source": 0
    },
    {
      "sampler": 0,
      "source": 1
    },
    {
      "sampler": 0,
      "source": 2
    },
    {
      "sampler": 0,
      "source": 3
    }
  ]
}
